<?xml version="1.0" encoding="utf-8"?>
<!-- Svg Vector Icons : http://www.onlinewebfonts.com/icon -->
<!DOCTYPE svg PUBLIC "-//W3C//DTD SVG 1.1//EN" "http://www.w3.org/Graphics/SVG/1.1/DTD/svg11.dtd">
<svg version="1.1" xmlns="http://www.w3.org/2000/svg" xmlns:xlink="http://www.w3.org/1999/xlink" x="0px" y="0px" viewBox="0 0 1000 1000" enable-background="new 0 0 1000 1000" xml:space="preserve">
<metadata> Svg Vector Icons : http://www.onlinewebfonts.com/icon </metadata>
<g><path d="M491.1,87.9c2.4,0,4.9,0,7.3,0c109.4,2.2,212,45,288.5,120.6c76.6,75.6,121,177.2,124.7,286.3v2.2l0.2,2.2l0,0v0.7v0.7l-0.2,2.2v2.4c-1.9,53.2-13.9,105.5-35.5,155.1c-21.1,48.6-50.6,92.6-87.5,130.3c-76.1,78.3-175.5,121.3-280,121.3c-2.4,0-4.9,0-7.5,0c-54.4-1-107.9-12.6-159-34.5c-50.1-21.4-95-51.3-133.7-89c-80.2-78-123.2-180.1-121-287.3c1-54,12.4-107,33.8-157.5c20.9-49.6,50.3-94.1,87.3-132.7C285,131.6,385.4,87.9,491.1,87.9 M491.1,10.1c-266.4,0-476.2,230.2-481,490C4.7,770.7,237.4,985,499.9,989.9c2.9,0,6.1,0,9,0c263.5,0,471.6-225.3,480.8-481.8c0.2-2.7,0.5-5.3,0.2-8.3c0-2.9,0-5.6-0.2-8.3C980.2,225.2,767.7,15.2,499.9,10.1C497,10.1,494,10.1,491.1,10.1L491.1,10.1z"/><path d="M493.3,747.1c2.4,2.9,5.3,4.4,8.3,4.4c5.1,0,10-2.2,14.6-6.6c13.4-10.9,29.2-30.4,47.4-58.8l15.3,8.8c-44.2,76.8-91.4,115.5-141,115.5c-19,0-34-5.3-45.2-16c-11.2-10.7-16.8-24.3-16.8-40.6c0-10.9,2.4-24.5,7.5-41.3l61-209.5c5.8-19.9,8.8-35,8.8-45.2c0-6.6-2.9-12.4-8.5-17.5c-5.6-5.1-13.1-7.5-22.6-7.5c-4.6,0-10,0.2-15.8,0.5l5.3-17.5l148.5-24.1h26l-89.9,311.4c-4.6,17.7-7,29.7-7,35.5C489.4,741.5,490.9,744.2,493.3,747.1z"/><path d="M604.9,300.1c-12.6,12.4-28,18.7-45.7,18.7c-17.5,0-32.3-6.3-45-18.7c-12.4-12.6-18.7-27.7-18.7-45.5s6.1-33.1,18.5-45.7c12.4-12.6,27.5-19,45.2-19c18.2,0,33.5,6.3,45.9,19c12.4,12.6,18.7,28,18.7,45.7C624.1,272.4,617.5,287.4,604.9,300.1z"/></g>
</svg>