<?xml version="1.0" encoding="iso-8859-1"?>
<!-- Generator: Adobe Illustrator 19.0.0, SVG Export Plug-In . SVG Version: 6.00 Build 0)  -->
<svg version="1.1" id="Layer_1" xmlns="http://www.w3.org/2000/svg" xmlns:xlink="http://www.w3.org/1999/xlink" x="0px" y="0px"
	 viewBox="0 0 498.4 498.4" style="enable-background:new 0 0 498.4 498.4;" xml:space="preserve">
<circle style="fill:#329908;" cx="249.2" cy="212" r="212"/>
<path style="fill:#207700;" d="M398.8,61.6c82.4,82.4,82.4,216.8,0,300c-82.4,82.4-216.8,82.4-300,0"/>
<polygon style="fill:#FFFFFF;" points="282.8,395.2 252.4,408.8 221.2,395.2 197.2,113.6 252.4,9.6 307.6,113.6 "/>
<polyline style="fill:#E5E5E5;" points="252.4,9.6 307.6,113.6 282.8,395.2 252.4,408.8 "/>
<rect x="225.2" y="418.4" style="fill:#D81107;" width="56" height="64"/>
<polyline style="fill:#AA2011;" points="225.2,418.4 281.2,418.4 281.2,482.4 "/>
<path style="fill:#34B515;" d="M314,410.4c0,8.8-7.2,16-16,16h-91.2c-8.8,0-16-7.2-16-16l0,0c0-8.8,7.2-16,16-16H298
	C306.8,394.4,314,401.6,314,410.4L314,410.4z"/>
<path style="fill:#FFC114;" d="M314,410.4c0,8.8-7.2,16-16,16h-91.2c-8.8,0-16-7.2-16-16l0,0c0-8.8,7.2-16,16-16H298
	C306.8,394.4,314,401.6,314,410.4L314,410.4z"/>
<path style="fill:#FCA12A;" d="M209.2,394.4H298c8.8,0,16,6.4,16,16l0,0c0,8.8-7.2,16-16,16"/>
<path style="fill:#34B515;" d="M209.2,486.4c0-8,8-12,13.6-12h58.4c5.6,0,16,2.4,16,12l0,0c0,9.6-9.6,12-16,12h-58.4
	C217.2,498.4,209.2,496.8,209.2,486.4L209.2,486.4z"/>
<path style="fill:#0B8E00;" d="M281.2,498.4h-58.4c-5.6,0-13.6-1.6-13.6-12l0,0c0-8,8-12,13.6-12"/>
<g>
	<rect x="225.2" y="434.4" style="fill:#FFC41D;" width="56" height="8"/>
	<rect x="225.2" y="458.4" style="fill:#FFC41D;" width="56" height="8"/>
</g>
<g>
</g>
<g>
</g>
<g>
</g>
<g>
</g>
<g>
</g>
<g>
</g>
<g>
</g>
<g>
</g>
<g>
</g>
<g>
</g>
<g>
</g>
<g>
</g>
<g>
</g>
<g>
</g>
<g>
</g>
</svg>
